<svg width="375" height="391" viewBox="0 0 375 391" fill="none" xmlns="http://www.w3.org/2000/svg">
<path d="M157.812 87.2485C161.559 89.5898 162.698 94.5253 160.357 98.2722L-69.3653 465.905C-71.7066 469.652 -76.6421 470.791 -80.389 468.45L-154.09 422.397C-157.836 420.055 -158.976 415.12 -156.635 411.373L73.0877 43.7403C75.429 39.9934 80.3646 38.8539 84.1115 41.1953L157.812 87.2485Z" fill="url(#paint0_linear_1016_29291)" fill-opacity="0.24"/>
<path d="M364.464 47.809C368.211 50.1503 369.351 55.0858 367.009 58.8327L47.1914 570.648C44.8501 574.395 39.9146 575.535 36.1677 573.193L-37.5329 527.14C-41.2798 524.799 -42.4192 519.863 -40.0779 516.117L279.74 4.30079C282.081 0.553876 287.017 -0.585564 290.764 1.75576L364.464 47.809Z" fill="url(#paint1_linear_1016_29291)" fill-opacity="0.24"/>
<path d="M448.391 204.787C452.138 207.129 453.277 212.064 450.936 215.811L193.105 628.427C190.764 632.173 185.828 633.313 182.081 630.972L108.381 584.918C104.634 582.577 103.494 577.641 105.836 573.894L363.666 161.279C366.008 157.532 370.943 156.392 374.69 158.734L448.391 204.787Z" fill="url(#paint2_linear_1016_29291)" fill-opacity="0.24"/>
<defs>
<linearGradient id="paint0_linear_1016_29291" x1="333.5" y1="16.5" x2="22.2896" y2="494.47" gradientUnits="userSpaceOnUse">
<stop stop-color="#6993FF"/>
<stop offset="0.686689" stop-color="#051945"/>
</linearGradient>
<linearGradient id="paint1_linear_1016_29291" x1="333.5" y1="16.5" x2="22.2896" y2="494.47" gradientUnits="userSpaceOnUse">
<stop stop-color="#6993FF"/>
<stop offset="0.686689" stop-color="#051945"/>
</linearGradient>
<linearGradient id="paint2_linear_1016_29291" x1="333.5" y1="16.5" x2="22.2896" y2="494.47" gradientUnits="userSpaceOnUse">
<stop stop-color="#6993FF"/>
<stop offset="0.686689" stop-color="#051945"/>
</linearGradient>
</defs>
</svg>
