<svg width="697" height="412" viewBox="0 0 697 412" fill="none" xmlns="http://www.w3.org/2000/svg">
<path d="M350.336 103.783C354.083 106.124 355.222 111.06 352.881 114.806L80.4065 550.856C78.0652 554.603 73.1297 555.743 69.3828 553.401L-19.9807 497.561C-23.7276 495.219 -24.8671 490.284 -22.5257 486.537L249.948 50.4873C252.29 46.7404 257.225 45.6009 260.972 47.9422L350.336 103.783Z" fill="url(#paint0_linear_959_7644)" fill-opacity="0.24"/>
<path d="M594.078 57.2647C597.824 59.6061 598.964 64.5416 596.623 68.2885L217.883 674.399C215.541 678.146 210.606 679.285 206.859 676.944L117.495 621.104C113.748 618.762 112.609 613.827 114.95 610.08L493.69 3.96928C496.032 0.222364 500.967 -0.917098 504.714 1.42423L594.078 57.2647Z" fill="url(#paint1_linear_959_7644)" fill-opacity="0.24"/>
<path d="M693.067 242.417C696.814 244.758 697.953 249.694 695.612 253.441L389.985 742.547C387.643 746.294 382.708 747.433 378.961 745.092L289.597 689.251C285.85 686.91 284.711 681.975 287.052 678.228L592.68 189.121C595.021 185.374 599.956 184.235 603.703 186.576L693.067 242.417Z" fill="url(#paint2_linear_959_7644)" fill-opacity="0.24"/>
<defs>
<linearGradient id="paint0_linear_959_7644" x1="606.826" y1="-51.286" x2="189.272" y2="583.331" gradientUnits="userSpaceOnUse">
<stop stop-color="#6993FF"/>
<stop offset="0.814242" stop-color="#051945"/>
</linearGradient>
<linearGradient id="paint1_linear_959_7644" x1="606.826" y1="-51.286" x2="189.272" y2="583.331" gradientUnits="userSpaceOnUse">
<stop stop-color="#6993FF"/>
<stop offset="0.814242" stop-color="#051945"/>
</linearGradient>
<linearGradient id="paint2_linear_959_7644" x1="606.826" y1="-51.286" x2="189.272" y2="583.331" gradientUnits="userSpaceOnUse">
<stop stop-color="#6993FF"/>
<stop offset="0.814242" stop-color="#051945"/>
</linearGradient>
</defs>
</svg>
