<svg width="11" height="16" viewBox="0 0 11 16" fill="none" xmlns="http://www.w3.org/2000/svg">
<path d="M1.11628 16C0.563993 16 0.116279 15.5523 0.116279 15V14.1085C0.116279 13.8419 0.222768 13.5863 0.412087 13.3985L5.67442 8.17927C6.91473 6.92437 7.53488 5.87862 7.53488 5.04202C7.53488 4.4295 7.33333 3.93651 6.93023 3.56303C6.54264 3.18954 6.03876 3.0028 5.4186 3.0028C4.54118 3.0028 3.82686 3.31714 3.27565 3.94583C2.89447 4.38059 2.27105 4.59935 1.76762 4.31498L0.811623 3.77498C0.354451 3.51674 0.166631 2.94217 0.459733 2.50653C0.922456 1.81877 1.50565 1.26711 2.2093 0.85154C3.17054 0.283847 4.22481 0 5.37209 0C6.84496 0 8.10853 0.448179 9.16279 1.34454C10.2171 2.22596 10.7442 3.4211 10.7442 4.92997C10.7442 6.55836 9.85271 8.23156 8.06977 9.94958L6.66882 11.2995C6.02082 11.9239 6.46282 13.0196 7.36269 13.0196H10C10.5523 13.0196 11 13.4673 11 14.0196V15C11 15.5523 10.5523 16 10 16H1.11628Z" fill="white"/>
</svg>
