<svg width="25" height="42" viewBox="0 0 25 42" fill="none" xmlns="http://www.w3.org/2000/svg">
<path fill-rule="evenodd" clip-rule="evenodd" d="M2.29897 2.32066C3.09635 1.5097 3.49504 1.10421 3.95629 0.952616C4.36192 0.819301 4.79957 0.819301 5.20521 0.952616C5.66645 1.10421 6.06515 1.5097 6.86253 2.32067L23.0898 18.8244C24.3547 20.1109 24.3547 22.1968 23.0898 23.4833L6.86252 39.987C6.06514 40.798 5.66645 41.2035 5.2052 41.3551C4.79957 41.4884 4.36192 41.4884 3.95629 41.3551C3.49504 41.2035 3.09635 40.798 2.29897 39.987L2.20595 39.8924C1.43254 39.1058 1.04583 38.7125 0.90064 38.2605C0.772894 37.8628 0.772894 37.435 0.90064 37.0373C1.04583 36.5852 1.43254 36.1919 2.20595 35.4053L14.0127 23.3974C14.7861 22.6108 15.1728 22.2175 15.318 21.7654C15.4457 21.3677 15.4457 20.94 15.318 20.5422C15.1728 20.0902 14.7861 19.6969 14.0127 18.9103L2.20595 6.90236C1.43254 6.11576 1.04583 5.72247 0.900639 5.27041C0.772894 4.87268 0.772894 4.44494 0.900639 4.04721C1.04583 3.59516 1.43254 3.20186 2.20595 2.41527L2.29897 2.32066Z" fill="white"/>
</svg>
