<svg width="22" height="24" viewBox="0 0 22 24" fill="none" xmlns="http://www.w3.org/2000/svg">
<path d="M12.0602 24C8.59237 24 5.70984 22.8571 3.41265 20.5714C1.13755 18.2637 0 15.4066 0 12C0 8.59341 1.13755 5.74725 3.41265 3.46154C5.70984 1.15385 8.59237 0 12.0602 0C14.1365 0 16.0582 0.483517 17.8253 1.45055C19.2766 2.22674 20.4747 3.24014 21.4194 4.49075C21.7592 4.94056 21.5964 5.57345 21.1081 5.85512L18.3025 7.47344C17.8208 7.75131 17.2124 7.57356 16.8503 7.15145C16.4127 6.64127 15.8762 6.22449 15.241 5.9011C14.2912 5.3956 13.2309 5.14286 12.0602 5.14286C10.006 5.14286 8.36044 5.76923 7.12349 7.02198C5.90863 8.27472 5.30121 9.93406 5.30121 12C5.30121 14.0659 5.90863 15.7253 7.12349 16.978C8.36044 18.2308 10.006 18.8571 12.0602 18.8571C13.2309 18.8571 14.2912 18.6044 15.241 18.0989C15.8816 17.7657 16.4167 17.3513 16.8462 16.8558C17.2126 16.433 17.8253 16.2513 18.3099 16.5308L21.1168 18.1499C21.6018 18.4296 21.7664 19.0565 21.4331 19.5064C20.5028 20.762 19.3113 21.7873 17.8584 22.5824C16.0914 23.5275 14.1586 24 12.0602 24Z" fill="white"/>
</svg>
