<svg width="24" height="24" viewBox="0 0 24 24" fill="none" xmlns="http://www.w3.org/2000/svg">
<path d="M19.2698 24C18.8456 24 18.4676 23.7324 18.3266 23.3324L17.2746 20.3476C17.1336 19.9476 16.7556 19.68 16.3314 19.68H7.6323C7.20817 19.68 6.83016 19.9476 6.68917 20.3476L5.63711 23.3324C5.49612 23.7324 5.11812 24 4.69398 24H1.43638C0.740002 24 0.256842 23.306 0.498543 22.6529L8.64054 0.652915C8.78576 0.260505 9.15995 0 9.57837 0H14.3864C14.8043 0 15.1782 0.259909 15.3237 0.651671L23.499 22.6517C23.7417 23.305 23.2585 24 22.5616 24H19.2698ZM8.99329 13.9227C8.76226 14.5736 9.24499 15.2571 9.93569 15.2571H14.0643C14.755 15.2571 15.2377 14.5736 15.0067 13.9227L12.9424 8.10659C12.6275 7.21924 11.3725 7.21924 11.0576 8.10659L8.99329 13.9227Z" fill="white"/>
</svg>
