<svg width="17" height="24" viewBox="0 0 17 24" fill="none" xmlns="http://www.w3.org/2000/svg">
<path d="M14.9397 10.5424C14.5214 11.0896 14.5869 11.9251 15.0949 12.3901C16.365 13.5529 17 15.1029 17 17.04C17 19.0743 16.3068 20.7429 14.9204 22.0457C13.534 23.3486 11.8285 24 9.80388 24H0.999999C0.447714 24 0 23.5523 0 23V1C0 0.447716 0.447715 0 1 0H9.11068C11.0913 0 12.7528 0.64 14.0951 1.92C15.4595 3.17714 16.1417 4.78857 16.1417 6.75429C16.1417 8.23139 15.7411 9.4941 14.9397 10.5424ZM9.11068 4.42286H5.55534C5.00305 4.42286 4.55534 4.87057 4.55534 5.42286V8.70286C4.55534 9.25514 5.00306 9.70286 5.55534 9.70286H9.11068C9.81489 9.70286 10.3981 9.45143 10.8602 8.94857C11.3443 8.44571 11.5864 7.81714 11.5864 7.06286C11.5864 6.30857 11.3553 5.68 10.8932 5.17714C10.4311 4.67429 9.83689 4.42286 9.11068 4.42286ZM9.80388 19.5771C10.5741 19.5771 11.2123 19.3143 11.7184 18.7886C12.2246 18.24 12.4777 17.5543 12.4777 16.7314C12.4777 15.9314 12.2246 15.2686 11.7184 14.7429C11.2123 14.1943 10.5741 13.92 9.80388 13.92H5.55534C5.00305 13.92 4.55534 14.3677 4.55534 14.92V18.5771C4.55534 19.1294 5.00306 19.5771 5.55534 19.5771H9.80388Z" fill="white"/>
</svg>
