<svg
  width="1180"
  height="1108"
  viewBox="0 0 1180 1108"
  fill="none"
  xmlns="http://www.w3.org/2000/svg"
>
  <path
    d="M706.859 124.775C709.983 127.9 709.983 132.965 706.859 136.089L135.989 706.959C132.865 710.083 127.799 710.083 124.675 706.959L2.70826 584.992C-0.415935 581.868 -0.415889 576.803 2.70826 573.678L573.578 2.80845C576.702 -0.315741 581.768 -0.315766 584.892 2.80843L706.859 124.775Z"
    fill="url(#paint0_linear_947_23137)"
    fill-opacity="0.24"
  />
  <path
    d="M1091.92 139.535C1095.05 142.659 1095.05 147.724 1091.92 150.849L300.85 941.92C297.726 945.044 292.661 945.044 289.536 941.92L167.569 819.953C164.445 816.829 164.445 811.763 167.569 808.639L958.641 17.5678C961.765 14.4436 966.83 14.4436 969.955 17.5678L1091.92 139.535Z"
    fill="url(#paint1_linear_947_23137)"
    fill-opacity="0.24"
  />
  <path
    d="M1177.03 454.274C1180.15 457.398 1180.15 462.464 1177.03 465.588L537.456 1105.16C534.332 1108.28 529.266 1108.28 526.142 1105.16L404.175 983.19C401.05 980.066 401.051 975 404.175 971.876L1043.74 332.307C1046.87 329.182 1051.93 329.182 1055.06 332.307L1177.03 454.274Z"
    fill="url(#paint2_linear_947_23137)"
    fill-opacity="0.24"
  />
  <defs>
    <linearGradient
      id="paint0_linear_947_23137"
      x1="1146"
      y1="-23.3906"
      x2="292.5"
      y2="791"
      gradientUnits="userSpaceOnUse"
    >
      <stop stop-color="#6993FF" />
      <stop
        offset="0.6631"
        stop-color="#051945"
      />
    </linearGradient>
    <linearGradient
      id="paint1_linear_947_23137"
      x1="1146"
      y1="-23.3906"
      x2="292.5"
      y2="791"
      gradientUnits="userSpaceOnUse"
    >
      <stop stop-color="#6993FF" />
      <stop
        offset="0.6631"
        stop-color="#051945"
      />
    </linearGradient>
    <linearGradient
      id="paint2_linear_947_23137"
      x1="1146"
      y1="-23.3906"
      x2="292.5"
      y2="791"
      gradientUnits="userSpaceOnUse"
    >
      <stop stop-color="#6993FF" />
      <stop
        offset="0.6631"
        stop-color="#051945"
      />
    </linearGradient>
  </defs>
</svg>
