<svg width="1386" height="1436" viewBox="0 0 1386 1436" fill="none" xmlns="http://www.w3.org/2000/svg">
<path d="M725.823 205.802C729.57 208.143 730.71 213.079 728.368 216.826L198.767 1064.36C196.426 1068.11 191.491 1069.25 187.744 1066.91L4.17715 952.204C0.430236 949.863 -0.709239 944.928 1.63212 941.181L531.233 93.6419C533.574 89.895 538.51 88.7556 542.257 91.0969L725.823 205.802Z" fill="url(#paint0_linear_2000_18926)" fill-opacity="0.24"/>
<path d="M1192.64 116.711C1196.38 119.052 1197.52 123.988 1195.18 127.735L462.061 1300.97C459.72 1304.72 454.784 1305.86 451.037 1303.52L267.471 1188.81C263.724 1186.47 262.584 1181.54 264.926 1177.79L998.046 4.55084C1000.39 0.803931 1005.32 -0.335534 1009.07 2.00581L1192.64 116.711Z" fill="url(#paint1_linear_2000_18926)" fill-opacity="0.24"/>
<path d="M1382.22 471.314C1385.97 473.655 1387.11 478.591 1384.77 482.338L791.67 1431.49C789.329 1435.24 784.393 1436.38 780.646 1434.03L597.079 1319.33C593.332 1316.99 592.193 1312.05 594.534 1308.31L1187.63 359.153C1189.97 355.407 1194.91 354.267 1198.65 356.608L1382.22 471.314Z" fill="url(#paint2_linear_2000_18926)" fill-opacity="0.24"/>
<defs>
<linearGradient id="paint0_linear_2000_18926" x1="923.5" y1="42" x2="827.5" y2="1108" gradientUnits="userSpaceOnUse">
<stop stop-color="#6993FF"/>
<stop offset="0.566128" stop-color="#051945"/>
</linearGradient>
<linearGradient id="paint1_linear_2000_18926" x1="923.5" y1="42" x2="827.5" y2="1108" gradientUnits="userSpaceOnUse">
<stop stop-color="#6993FF"/>
<stop offset="0.566128" stop-color="#051945"/>
</linearGradient>
<linearGradient id="paint2_linear_2000_18926" x1="923.5" y1="42" x2="827.5" y2="1108" gradientUnits="userSpaceOnUse">
<stop stop-color="#6993FF"/>
<stop offset="0.566128" stop-color="#051945"/>
</linearGradient>
</defs>
</svg>
