<svg width="375" height="633" viewBox="0 0 375 633" fill="none" xmlns="http://www.w3.org/2000/svg">
<path d="M139.027 87.2485C142.774 89.5898 143.913 94.5253 141.572 98.2722L-88.1504 465.905C-90.4918 469.652 -95.4273 470.791 -99.1742 468.45L-172.875 422.397C-176.622 420.055 -177.761 415.12 -175.42 411.373L54.3026 43.7403C56.6439 39.9934 61.5794 38.8539 65.3263 41.1953L139.027 87.2485Z" fill="url(#paint0_linear_1560_32192)" fill-opacity="0.24"/>
<path d="M345.679 47.809C349.426 50.1503 350.566 55.0858 348.224 58.8327L28.4063 570.648C26.0649 574.395 21.1294 575.535 17.3825 573.193L-56.318 527.14C-60.0649 524.799 -61.2044 519.863 -58.8631 516.117L260.955 4.30079C263.296 0.553876 268.232 -0.585564 271.979 1.75576L345.679 47.809Z" fill="url(#paint1_linear_1560_32192)" fill-opacity="0.24"/>
<path d="M429.606 204.787C433.353 207.129 434.492 212.064 432.151 215.811L174.32 628.427C171.979 632.173 167.043 633.313 163.296 630.972L89.5954 584.918C85.8485 582.577 84.709 577.641 87.0504 573.894L344.881 161.279C347.223 157.532 352.158 156.392 355.905 158.734L429.606 204.787Z" fill="url(#paint2_linear_1560_32192)" fill-opacity="0.24"/>
<defs>
<linearGradient id="paint0_linear_1560_32192" x1="314.715" y1="16.5" x2="120.5" y2="700.5" gradientUnits="userSpaceOnUse">
<stop stop-color="#6993FF"/>
<stop offset="0.85486" stop-color="#051945"/>
</linearGradient>
<linearGradient id="paint1_linear_1560_32192" x1="314.715" y1="16.5" x2="120.5" y2="700.5" gradientUnits="userSpaceOnUse">
<stop stop-color="#6993FF"/>
<stop offset="0.85486" stop-color="#051945"/>
</linearGradient>
<linearGradient id="paint2_linear_1560_32192" x1="314.715" y1="16.5" x2="120.5" y2="700.5" gradientUnits="userSpaceOnUse">
<stop stop-color="#6993FF"/>
<stop offset="0.85486" stop-color="#051945"/>
</linearGradient>
</defs>
</svg>
