<svg width="96" height="48" viewBox="0 0 96 48" fill="none" xmlns="http://www.w3.org/2000/svg">
<g id="logo">
<g id="Group">
<g id="Group_2">
<g id="Group_3">
<path id="Vector" d="M0.51081 37.7621C0.555882 38.1031 0.638527 38.3393 0.758719 38.4629C0.878911 38.5866 1.05543 38.6503 1.2883 38.6503C1.54371 38.6503 1.74277 38.5304 1.88926 38.2905C2.03574 38.0507 2.10711 37.7058 2.11087 37.2561H0.822565V36.8288H2.11087C2.11087 36.3866 2.03575 36.0455 1.88176 35.7981C1.72776 35.5508 1.51367 35.4271 1.24323 35.4271C1.02914 35.4271 0.863872 35.4946 0.74368 35.6332C0.627244 35.7719 0.54837 36.0043 0.51081 36.3266H0.00375967C0.0450757 35.8993 0.172783 35.5695 0.383119 35.3409C0.597211 35.1123 0.882655 34.9961 1.23948 34.9961C1.65639 34.9961 1.99069 35.1647 2.23858 35.4983C2.48648 35.8319 2.61042 36.2891 2.61042 36.8663V37.2411C2.61042 37.6047 2.55784 37.927 2.44892 38.2006C2.33999 38.4779 2.18598 38.6953 1.98316 38.849C1.78033 39.0026 1.54746 39.0813 1.28455 39.0813C0.912701 39.0813 0.615979 38.9689 0.394375 38.744C0.172771 38.5192 0.041316 38.1931 0 37.7658H0.51081V37.7621Z" fill="#064497"/>
<path id="Vector_2" d="M4.38297 37.2415H4.00737V39.0256H3.50781V35.0527H4.00737V36.803H4.31536L5.43464 35.0527H6.05815L4.79614 36.9717L6.15205 39.0218H5.53982L4.38297 37.2415Z" fill="#064497"/>
<path id="Vector_3" d="M9.26787 37.3875C9.26787 37.9309 9.15144 38.3469 8.92233 38.6393C8.68946 38.9316 8.36268 39.0778 7.9345 39.0778C7.52509 39.0778 7.20207 38.9354 6.96168 38.6505C6.72506 38.3657 6.60111 37.9646 6.58984 37.4437V36.6978C6.58984 36.1656 6.70628 35.7496 6.94291 35.4498C7.17954 35.1499 7.50631 35 7.92698 35C8.34765 35 8.67444 35.1424 8.90731 35.431C9.14018 35.7196 9.26036 36.1319 9.26787 36.6641V37.3875ZM8.76832 36.6903C8.76832 36.2706 8.70072 35.9595 8.56174 35.7533C8.42277 35.5472 8.21243 35.446 7.92698 35.446C7.65279 35.446 7.44246 35.551 7.30349 35.7571C7.16076 35.9632 7.0894 36.2706 7.0894 36.6753V37.3875C7.0894 37.7922 7.16076 38.1033 7.29973 38.3132C7.44246 38.5268 7.65279 38.6318 7.93074 38.6318C8.21244 38.6318 8.41903 38.5343 8.55425 38.3357C8.68946 38.1408 8.76083 37.8372 8.76458 37.4324V36.6903H8.76832Z" fill="#064497"/>
<path id="Vector_4" d="M12.6529 35.0526V39.0254H12.1496V35.4799H11.0379L10.9778 37.1514C10.9552 37.6387 10.9101 38.0097 10.8388 38.2683C10.7674 38.5232 10.6622 38.7143 10.527 38.8343C10.3918 38.9579 10.2115 39.0179 9.98992 39.0217H9.83594V38.5944L9.92984 38.5906C10.0613 38.5794 10.1665 38.5269 10.2416 38.437C10.3167 38.3433 10.373 38.2008 10.4106 37.9985C10.4482 37.7998 10.4745 37.4925 10.4932 37.0802L10.5571 35.0488H12.6529V35.0526Z" fill="#064497"/>
<path id="Vector_5" d="M16.2718 37.3875C16.2718 37.9309 16.1553 38.3469 15.9262 38.6393C15.6934 38.9316 15.3666 39.0778 14.9384 39.0778C14.529 39.0778 14.206 38.9354 13.9656 38.6505C13.729 38.3657 13.605 37.9646 13.5938 37.4437V36.6978C13.5938 36.1656 13.7102 35.7496 13.9468 35.4498C14.1834 35.1499 14.5102 35 14.9309 35C15.3516 35 15.6783 35.1424 15.9112 35.431C16.1441 35.7196 16.2643 36.1319 16.2718 36.6641V37.3875ZM15.7722 36.6903C15.7722 36.2706 15.7046 35.9595 15.5656 35.7533C15.4267 35.5472 15.2163 35.446 14.9309 35.446C14.6567 35.446 14.4463 35.551 14.3074 35.7571C14.1646 35.9632 14.0933 36.2706 14.0933 36.6753V37.3875C14.0933 37.7922 14.1647 38.1033 14.3036 38.3132C14.4464 38.5268 14.6567 38.6318 14.9346 38.6318C15.2163 38.6318 15.4229 38.5343 15.5581 38.3357C15.6933 38.1408 15.7647 37.8372 15.7685 37.4324V36.6903H15.7722Z" fill="#064497"/>
<path id="Vector_6" d="M19.2805 35.48H17.7142V39.0256H17.2109V35.0527H19.2805V35.48Z" fill="#064497"/>
<path id="Vector_7" d="M22.1326 35.0527H22.6322V39.0256H22.1326V35.9635L20.5814 39.0256H20.0781V35.0527H20.5814V38.1148L22.1326 35.0527Z" fill="#064497"/>
<path id="Vector_8" d="M25.4002 39.0254V37.4775H24.7129L24.0255 39.0254H23.4922L24.2697 37.3238C23.834 37.1214 23.6199 36.7654 23.6199 36.2482C23.6199 35.8734 23.7251 35.5811 23.9316 35.3712C24.142 35.1575 24.4312 35.0526 24.8068 35.0488H25.8998V39.0217H25.4002V39.0254ZM24.1232 36.2482C24.1232 36.488 24.1833 36.683 24.3035 36.8254C24.4237 36.9715 24.5927 37.0427 24.8105 37.0465H25.4002V35.4799H24.8143C24.5889 35.4799 24.4162 35.5473 24.2997 35.686C24.1833 35.8209 24.1232 36.0083 24.1232 36.2482Z" fill="#064497"/>
<path id="Vector_9" d="M29.0861 37.2415H28.7105V39.0256H28.2109V35.0527H28.7105V36.803H29.0185L30.1378 35.0527H30.7613L29.4992 36.9717L30.8552 39.0218H30.2429L29.0861 37.2415Z" fill="#064497"/>
<path id="Vector_10" d="M33.3196 37.9835H31.9749L31.6669 39.0217H31.1523L32.4331 35.0488H32.8613L34.1459 39.0217H33.6313L33.3196 37.9835ZM32.1064 37.5562H33.1918L32.6472 35.7497L32.1064 37.5562Z" fill="#064497"/>
<path id="Vector_11" d="M37.4974 38.5945H37.9632L37.9594 39.9963H37.4599V39.0218H35.1086V40H34.6053L34.6016 38.5945H34.8945C35.0222 38.4334 35.1274 38.1898 35.2063 37.8637C35.2889 37.5376 35.3377 37.1741 35.3603 36.7731L35.4354 35.0527H37.4937V38.5945H37.4974ZM35.4279 38.5945H36.9941V35.48H35.9237L35.8673 36.7618C35.8448 37.1816 35.796 37.5451 35.7171 37.8487C35.6382 38.156 35.5443 38.4034 35.4279 38.5945Z" fill="#064497"/>
<path id="Vector_12" d="M39.2183 37.4702V39.0256H38.7188V35.0527H39.9883C40.3601 35.0527 40.6493 35.1614 40.8597 35.3826C41.07 35.6037 41.1752 35.896 41.1752 36.2633C41.1752 36.6456 41.0738 36.938 40.8747 37.1478C40.6719 37.354 40.3902 37.4627 40.0221 37.4702H39.2183ZM39.2183 37.0391H39.9883C40.2099 37.0391 40.3827 36.9717 40.4991 36.8405C40.6193 36.7093 40.6756 36.5182 40.6756 36.2708C40.6756 36.0309 40.6155 35.8398 40.4916 35.6974C40.3676 35.555 40.2024 35.48 39.9883 35.48H39.2183V37.0391Z" fill="#064497"/>
<path id="Vector_13" d="M42.4877 36.6718H43.2915C43.6483 36.6718 43.93 36.7768 44.1291 36.9829C44.3319 37.1891 44.4333 37.4739 44.4333 37.8375C44.4333 38.201 44.3319 38.4896 44.1253 38.7032C43.9187 38.9169 43.637 39.0256 43.2727 39.0256H41.9844V35.0527H42.4839V36.6718H42.4877ZM42.4877 37.0991V38.5945H43.284C43.4868 38.5945 43.6483 38.5233 43.761 38.3847C43.8737 38.246 43.93 38.0586 43.93 37.83C43.93 37.6051 43.8737 37.4252 43.761 37.294C43.6483 37.1628 43.4905 37.0991 43.2877 37.0991H42.4877ZM45.2859 39.0256H44.7864V35.0527H45.2859V39.0256Z" fill="#064497"/>
<path id="Vector_14" d="M49.6516 35.48H48.0853V39.0256H47.582V35.0527H49.6516V35.48Z" fill="#064497"/>
<path id="Vector_15" d="M52.8343 37.3875C52.8343 37.9309 52.7178 38.3469 52.4887 38.6393C52.2559 38.9316 51.9291 39.0778 51.5009 39.0778C51.0915 39.0778 50.7685 38.9354 50.5281 38.6505C50.2915 38.3657 50.1675 37.9646 50.1562 37.4437V36.6978C50.1562 36.1656 50.2727 35.7496 50.5093 35.4498C50.7459 35.1499 51.0727 35 51.4934 35C51.9141 35 52.2408 35.1424 52.4737 35.431C52.7066 35.7196 52.8268 36.1319 52.8343 36.6641V37.3875ZM52.3347 36.6903C52.3347 36.2706 52.2671 35.9595 52.1281 35.7533C51.9892 35.5472 51.7788 35.446 51.4934 35.446C51.2192 35.446 51.0089 35.551 50.8699 35.7571C50.7272 35.9632 50.6558 36.2706 50.6558 36.6753V37.3875C50.6558 37.7922 50.7272 38.1033 50.8661 38.3132C51.0089 38.5268 51.2192 38.6318 51.4971 38.6318C51.7788 38.6318 51.9854 38.5343 52.1207 38.3357C52.2559 38.1408 52.3272 37.8372 52.331 37.4324V36.6903H52.3347Z" fill="#064497"/>
<path id="Vector_16" d="M56.2441 37.7623C56.2216 38.1895 56.1014 38.5118 55.8836 38.7405C55.6657 38.9653 55.3577 39.0815 54.9596 39.0815C54.5615 39.0815 54.2422 38.9316 54.0093 38.628C53.7727 38.3244 53.6562 37.9159 53.6562 37.3949V36.6753C53.6562 36.1581 53.7765 35.7496 54.0168 35.4498C54.2572 35.1499 54.5877 35 55.0047 35C55.3878 35 55.6883 35.1162 55.8986 35.3448C56.1089 35.5735 56.2216 35.9033 56.2404 36.3305H55.7333C55.7108 36.0082 55.6432 35.7758 55.5267 35.6372C55.4103 35.4985 55.2375 35.431 55.0009 35.431C54.7305 35.431 54.5201 35.536 54.3737 35.7496C54.2272 35.9632 54.1558 36.2706 54.1558 36.6828V37.4099C54.1558 37.811 54.2234 38.122 54.3586 38.3357C54.4938 38.5493 54.6929 38.658 54.9521 38.658C55.2112 38.658 55.399 38.5943 55.5155 38.4631C55.6319 38.3357 55.7033 38.1033 55.7296 37.766H56.2441V37.7623Z" fill="#064497"/>
<path id="Vector_17" d="M58.2165 37.2789L58.9264 35.0526H59.5048L58.3592 38.362C58.2766 38.5757 58.2015 38.7256 58.1339 38.8118C58.0663 38.898 57.9874 38.9654 57.8935 39.0104C57.7996 39.0591 57.6831 39.0816 57.5442 39.0816C57.4202 39.0816 57.3376 39.0741 57.3075 39.0554L57.3188 38.6394L57.5366 38.6506C57.6831 38.6506 57.7883 38.5607 57.8522 38.3845L57.9836 37.9947L56.8906 35.0488H57.4465L58.2165 37.2789Z" fill="#064497"/>
<path id="Vector_18" d="M62.6654 38.5945H63.1312L63.1274 39.9963H62.6278V39.0218H60.2766V40H59.7733L59.7695 38.5945H60.0625C60.1902 38.4334 60.2954 38.1898 60.3742 37.8637C60.4569 37.5376 60.5057 37.1741 60.5283 36.7731L60.6034 35.0527H62.6617V38.5945H62.6654ZM60.5959 38.5945H62.1621V35.48H61.0917L61.0353 36.7618C61.0128 37.1816 60.9639 37.5451 60.8851 37.8487C60.8062 38.156 60.7085 38.4034 60.5959 38.5945Z" fill="#064497"/>
<path id="Vector_19" d="M65.7844 37.9835H64.4398L64.1318 39.0217H63.6172L64.898 35.0488H65.3262L66.6107 39.0217H66.0961L65.7844 37.9835ZM64.5712 37.5562H65.6567L65.1121 35.7497L64.5712 37.5562Z" fill="#064497"/>
<path id="Vector_20" d="M67.7964 37.4702V39.0256H67.2969V35.0527H68.5664C68.9382 35.0527 69.2275 35.1614 69.4378 35.3826C69.6481 35.6037 69.7533 35.896 69.7533 36.2633C69.7533 36.6456 69.6519 36.938 69.4528 37.1478C69.25 37.354 68.9683 37.4627 68.6002 37.4702H67.7964ZM67.7964 37.0391H68.5626C68.7842 37.0391 68.957 36.9717 69.0735 36.8405C69.1937 36.7093 69.25 36.5182 69.25 36.2708C69.25 36.0309 69.1899 35.8398 69.066 35.6974C68.942 35.555 68.7767 35.48 68.5626 35.48H67.7927V37.0391H67.7964Z" fill="#064497"/>
<path id="Vector_21" d="M73.0332 37.7623C73.0107 38.1895 72.8905 38.5118 72.6726 38.7405C72.4548 38.9653 72.1468 39.0815 71.7486 39.0815C71.3505 39.0815 71.0312 38.9316 70.7984 38.628C70.5617 38.3244 70.4453 37.9159 70.4453 37.3949V36.6753C70.4453 36.1581 70.5655 35.7496 70.8059 35.4498C71.0463 35.1499 71.3768 35 71.7937 35C72.1768 35 72.4773 35.1162 72.6876 35.3448C72.898 35.5735 73.0107 35.9033 73.0294 36.3305H72.5224C72.4998 36.0082 72.4322 35.7758 72.3158 35.6372C72.1994 35.4985 72.0266 35.431 71.79 35.431C71.5195 35.431 71.3092 35.536 71.1627 35.7496C71.0162 35.9632 70.9449 36.2706 70.9449 36.6828V37.4099C70.9449 37.811 71.0125 38.122 71.1477 38.3357C71.2829 38.5493 71.482 38.658 71.7411 38.658C72.0003 38.658 72.1881 38.5943 72.3045 38.4631C72.421 38.3357 72.4923 38.1033 72.5186 37.766H73.0332V37.7623Z" fill="#064497"/>
<path id="Vector_22" d="M76.0994 35.48H75.0515V39.0256H74.552V35.48H73.5078V35.0527H76.0994V35.48Z" fill="#064497"/>
<path id="Vector_23" d="M76.8281 39.0256V35.0527H77.9624C78.3268 35.0527 78.5972 35.1427 78.7812 35.3188C78.9653 35.495 79.0554 35.7611 79.0554 36.1134C79.0554 36.2971 79.0104 36.462 78.9165 36.6044C78.8226 36.7468 78.6986 36.8555 78.5409 36.9342C78.7249 36.9904 78.8676 37.0991 78.9728 37.2715C79.078 37.4402 79.1343 37.6426 79.1343 37.8824C79.1343 38.2385 79.0366 38.5196 78.8413 38.722C78.646 38.9244 78.3643 39.0293 78.0038 39.0293H76.8281V39.0256ZM77.3277 36.7468H77.9699C78.1427 36.7468 78.2817 36.6868 78.3906 36.5706C78.4958 36.4545 78.5521 36.3008 78.5521 36.1059C78.5521 35.8885 78.5033 35.7274 78.4056 35.6299C78.308 35.5325 78.1615 35.48 77.9624 35.48H77.3277V36.7468ZM77.3277 37.1666V38.5945H78.0113C78.1991 38.5945 78.3531 38.5308 78.462 38.4071C78.5747 38.2835 78.6272 38.1073 78.6272 37.8824C78.6272 37.4027 78.4244 37.1666 78.0188 37.1666H77.3277Z" fill="#064497"/>
<path id="Vector_24" d="M82.6155 37.3875C82.6155 37.9309 82.4991 38.3469 82.27 38.6393C82.0371 38.9316 81.7103 39.0778 81.2822 39.0778C80.8728 39.0778 80.5497 38.9354 80.3093 38.6505C80.0727 38.3657 79.9488 37.9646 79.9375 37.4437V36.6978C79.9375 36.1656 80.0539 35.7496 80.2906 35.4498C80.5272 35.1499 80.854 35 81.2746 35C81.6953 35 82.0221 35.1424 82.2549 35.431C82.4878 35.7196 82.608 36.1319 82.6155 36.6641V37.3875ZM82.116 36.6903C82.116 36.2706 82.0484 35.9595 81.9094 35.7533C81.7704 35.5472 81.5601 35.446 81.2746 35.446C81.0004 35.446 80.7901 35.551 80.6511 35.7571C80.5084 35.9632 80.4371 36.2706 80.4371 36.6753V37.3875C80.4371 37.7922 80.5084 38.1033 80.6474 38.3132C80.7901 38.5268 81.0005 38.6318 81.2784 38.6318C81.5601 38.6318 81.7667 38.5343 81.9019 38.3357C82.0371 38.1408 82.1085 37.8372 82.1122 37.4324V36.6903H82.116Z" fill="#064497"/>
</g>
</g>
<g id="Group_4">
<g id="Group_5">
<path id="Vector_25" d="M35.811 8C38.7744 8 41.2609 8.98571 43.2742 10.9571C45.2874 12.9286 46.294 15.3535 46.294 18.2319C46.294 21.1103 45.2874 23.5352 43.2742 25.5067C41.2609 27.4781 38.7744 28.4638 35.811 28.4638C33.6287 28.4638 31.7132 27.9091 30.0718 26.7997C28.4304 25.6903 27.2398 24.3223 26.4961 22.6919L30.2821 21.2415C30.7742 22.2647 31.5104 23.1042 32.4907 23.7563C33.4672 24.4085 34.5753 24.7383 35.8072 24.7383C37.2683 24.7383 38.5491 24.3035 39.6534 23.4303C40.7539 22.5608 41.4938 21.4214 41.8732 20.0197H33.1855V16.4404H41.8732C41.4938 15.0386 40.7539 13.903 39.6534 13.0297C38.5529 12.1565 37.2721 11.7217 35.8072 11.7217C34.5715 11.7217 33.4672 12.0478 32.4907 12.7037C31.5141 13.3558 30.7779 14.1954 30.2821 15.2185L26.4961 13.7681C27.236 12.1377 28.4267 10.7697 30.0718 9.66034C31.7169 8.55469 33.6287 8 35.811 8Z" fill="#064497"/>
</g>
<g id="Group_6">
<path id="Vector_26" d="M66.7692 8.28516L60.3051 17.9736L67.3401 28.1755H62.4423L56.8045 20.02H53.841V28.1755H49.7695V8.28516H53.841V16.4407H56.8045L62.2995 8.28516H66.7692Z" fill="#064497"/>
</g>
<g id="Group_7">
<path id="Vector_27" d="M74.466 28.1755H70.3945V8.28516H82.9997V11.8944H74.466V28.1755Z" fill="#064497"/>
</g>
</g>
<path id="Vector_28" d="M3.57975 18.0898H0.0078125V28.1793H3.57975V18.0898Z" fill="#DCDBDD"/>
<path id="Vector_29" d="M10.7204 8H7.14844V28.1752H10.7204V8Z" fill="#2299D6"/>
<path id="Vector_30" d="M17.8649 13.7676H14.293V28.1747H17.8649V13.7676Z" fill="#E3000F"/>
</g>
</g>
</svg>
